<svg xmlns="http://www.w3.org/2000/svg" viewBox="0 0 900 420" role="img" aria-label="CASPER cricket artwork"><defs><linearGradient id="a" x1="0" y1="0" x2="1" y2="1"><stop stop-color="#29140e"/><stop offset="1" stop-color="#73402a"/></linearGradient><radialGradient id="b"><stop stop-color="#e1bd69" stop-opacity=".55"/><stop offset="1" stop-color="#e1bd69" stop-opacity="0"/></radialGradient></defs><rect width="900" height="420" fill="url(#a)"/><ellipse cx="500" cy="100" rx="360" ry="180" fill="url(#b)"/><g opacity=".35" stroke="#e2c77f"><path d="M80 360Q450 175 820 360" fill="none" stroke-width="5"/><path d="M130 360Q450 215 770 360" fill="none" stroke-width="2"/></g><g transform="translate(505 50)"><circle cx="0" cy="46" r="34" fill="#3c241a" stroke="#d7bd75" stroke-width="3"/><path d="M-52 98Q0 76 52 98L82 275H-82Z" fill="#26150f" stroke="#d7bd75" stroke-width="3"/><path d="M-48 112L-125 195M48 112L125 195" stroke="#26150f" stroke-width="30" stroke-linecap="round"/><path d="M-38 270L-86 360M38 270L86 360" stroke="#26150f" stroke-width="38" stroke-linecap="round"/></g><g transform="translate(285 300) rotate(-24)"><rect x="-10" y="-105" width="20" height="190" rx="7" fill="#d9bc72"/><path d="M-28 80H28V112Q0 130-28 112Z" fill="#5d321f"/></g><g transform="translate(360 340)"><circle r="30" fill="#9b3025" stroke="#e1c27a" stroke-width="4"/><path d="M-20-8Q0 12 20-8M-18 7Q0 27 18 7" fill="none" stroke="#f0d38a" stroke-width="3"/></g><text x="55" y="65" fill="#ead99e" font-family="Georgia,serif" font-size="30" font-weight="700">CRICKET</text></svg>